<svg width="135" height="40" viewBox="0 0 135 40" fill="none" xmlns="http://www.w3.org/2000/svg">
<g clip-path="url(#clip0)">
<path d="M130 0H5C2.23858 0 0 2.23858 0 5V35C0 37.7614 2.23858 40 5 40H130C132.761 40 135 37.7614 135 35V5C135 2.23858 132.761 0 130 0Z" fill="black"/>
<path d="M130 0.8C131.114 0.8 132.182 1.2425 132.97 2.03015C133.758 2.8178 134.2 3.88609 134.2 5V35C134.2 36.1139 133.758 37.1822 132.97 37.9698C132.182 38.7575 131.114 39.2 130 39.2H5C3.88609 39.2 2.8178 38.7575 2.03015 37.9698C1.2425 37.1822 0.8 36.1139 0.8 35V5C0.8 3.88609 1.2425 2.8178 2.03015 2.03015C2.8178 1.2425 3.88609 0.8 5 0.8H130ZM130 0H5C3.67392 0 2.40215 0.526784 1.46447 1.46447C0.526784 2.40215 0 3.67392 0 5V35C0 36.3261 0.526784 37.5979 1.46447 38.5355C2.40215 39.4732 3.67392 40 5 40H130C131.326 40 132.598 39.4732 133.536 38.5355C134.473 37.5979 135 36.3261 135 35V5C135 3.67392 134.473 2.40215 133.536 1.46447C132.598 0.526784 131.326 0 130 0Z" fill="#A6A6A6"/>
<path d="M47.42 10.24C47.4364 10.6067 47.3785 10.9729 47.2496 11.3167C47.1207 11.6604 46.9235 11.9745 46.67 12.24C46.3859 12.5333 46.0431 12.7633 45.664 12.9149C45.2849 13.0666 44.878 13.1364 44.47 13.12C44.0597 13.1291 43.6518 13.054 43.2717 12.8991C42.8916 12.7443 42.5472 12.5132 42.26 12.22C41.6773 11.6239 41.3511 10.8235 41.3511 9.98996C41.3511 9.15643 41.6773 8.356 42.26 7.75996C42.7055 7.32465 43.2697 7.0307 43.8818 6.91505C44.4938 6.79941 45.1264 6.86722 45.7 7.10997C46.0606 7.2582 46.3823 7.48745 46.64 7.77997L46.11 8.30996C45.9114 8.07074 45.6598 7.8811 45.3751 7.75612C45.0904 7.63113 44.7805 7.57424 44.47 7.58996C44.078 7.59268 43.6927 7.69136 43.3477 7.87738C43.0026 8.0634 42.7084 8.33111 42.4907 8.65709C42.273 8.98308 42.1385 9.35742 42.0989 9.7474C42.0593 10.1374 42.1158 10.5311 42.2635 10.8942C42.4112 11.2573 42.6456 11.5787 42.9462 11.8303C43.2468 12.0819 43.6044 12.256 43.9878 12.3375C44.3713 12.419 44.7688 12.4053 45.1457 12.2976C45.5226 12.19 45.8675 11.9916 46.15 11.72C46.4555 11.3851 46.6326 10.9529 46.65 10.5H44.47V9.77997H47.38C47.4028 9.93233 47.4161 10.086 47.42 10.24Z" fill="white" stroke="white" stroke-width="0.2" stroke-miterlimit="10"/>
<path d="M52 7.74H49.3V9.64H51.76V10.36H49.3V12.26H52V13H48.52V7H52V7.74Z" fill="white" stroke="white" stroke-width="0.2" stroke-miterlimit="10"/>
<path d="M55.28 13H54.51V7.74H52.83V7H57V7.74H55.28V13Z" fill="white" stroke="white" stroke-width="0.2" stroke-miterlimit="10"/>
<path d="M59.9399 13V7H60.7099V13H59.9399Z" fill="white" stroke="white" stroke-width="0.2" stroke-miterlimit="10"/>
<path d="M64.1301 13H63.3601V7.74H61.6801V7H65.8001V7.74H64.1301V13Z" fill="white" stroke="white" stroke-width="0.2" stroke-miterlimit="10"/>
<path d="M73.61 12.2199C73.3212 12.509 72.9783 12.7383 72.6008 12.8947C72.2233 13.0512 71.8187 13.1317 71.41 13.1317C71.0014 13.1317 70.5968 13.0512 70.2193 12.8947C69.8418 12.7383 69.4989 12.509 69.21 12.2199C68.6447 11.6189 68.33 10.825 68.33 9.9999C68.33 9.17483 68.6447 8.38085 69.21 7.7799C69.4926 7.4827 69.8345 7.24813 70.2134 7.09138C70.5924 6.93462 71.0001 6.85917 71.41 6.8699C71.8194 6.86342 72.2258 6.94082 72.6042 7.09732C72.9825 7.25382 73.3248 7.48612 73.61 7.7799C73.8976 8.07239 74.1236 8.41953 74.2747 8.80083C74.4259 9.18212 74.4991 9.58984 74.49 9.9999C74.5032 10.4105 74.4318 10.8194 74.2804 11.2012C74.1291 11.5831 73.9009 11.9298 73.61 12.2199V12.2199ZM69.78 11.7199C69.9931 11.9358 70.2469 12.1072 70.5267 12.2242C70.8065 12.3412 71.1068 12.4014 71.41 12.4014C71.7133 12.4014 72.0136 12.3412 72.2934 12.2242C72.5732 12.1072 72.827 11.9358 73.04 11.7199C73.4715 11.251 73.711 10.6371 73.711 9.9999C73.711 9.3627 73.4715 8.74877 73.04 8.2799C72.827 8.06402 72.5732 7.89261 72.2934 7.77562C72.0136 7.65862 71.7133 7.59838 71.41 7.59838C71.1068 7.59838 70.8065 7.65862 70.5267 7.77562C70.2469 7.89261 69.9931 8.06402 69.78 8.2799C69.3485 8.74877 69.109 9.3627 69.109 9.9999C69.109 10.6371 69.3485 11.251 69.78 11.7199V11.7199Z" fill="white" stroke="white" stroke-width="0.2" stroke-miterlimit="10"/>
<path d="M75.58 13V7H76.51L79.43 11.67V10.51V7H80.2V13H79.4L76.35 8.11V9.26V13H75.58Z" fill="white" stroke="white" stroke-width="0.2" stroke-miterlimit="10"/>
<path d="M68.14 21.7499C67.2974 21.7519 66.4744 22.0037 65.7749 22.4734C65.0755 22.9432 64.531 23.6098 64.2104 24.3889C63.8898 25.1681 63.8075 26.0248 63.9738 26.8508C64.1401 27.6768 64.5476 28.4349 65.1448 29.0293C65.742 29.6236 66.502 30.0276 67.3287 30.19C68.1555 30.3524 69.0118 30.2661 69.7895 29.9418C70.5671 29.6175 71.2311 29.07 71.6976 28.3683C72.164 27.6667 72.412 26.8425 72.41 25.9999C72.4181 25.4379 72.3131 24.8799 72.1012 24.3593C71.8892 23.8386 71.5746 23.366 71.1762 22.9694C70.7778 22.5729 70.3037 22.2606 69.7821 22.051C69.2604 21.8415 68.702 21.7391 68.14 21.7499V21.7499ZM68.14 28.5799C67.6236 28.616 67.1082 28.496 66.6609 28.2353C66.2137 27.9747 65.8552 27.5855 65.632 27.1184C65.4088 26.6512 65.3314 26.1278 65.4097 25.6161C65.4879 25.1043 65.7184 24.628 66.0709 24.249C66.4235 23.8699 66.882 23.6057 67.3867 23.4907C67.8915 23.3757 68.4192 23.4152 68.9012 23.604C69.3832 23.7929 69.7972 24.1223 70.0895 24.5496C70.3818 24.9769 70.5387 25.4822 70.54 25.9999C70.5561 26.3279 70.5063 26.6559 70.3937 26.9643C70.2811 27.2728 70.1078 27.5556 69.8841 27.7961C69.6604 28.0366 69.3909 28.2298 69.0913 28.3644C68.7918 28.499 68.4683 28.5723 68.14 28.5799ZM58.82 21.7499C57.9774 21.7519 57.1544 22.0037 56.4549 22.4734C55.7555 22.9432 55.211 23.6098 54.8904 24.3889C54.5698 25.1681 54.4875 26.0248 54.6538 26.8508C54.8201 27.6768 55.2276 28.4349 55.8248 29.0293C56.422 29.6236 57.182 30.0276 58.0087 30.19C58.8355 30.3524 59.6918 30.2661 60.4695 29.9418C61.2471 29.6175 61.9111 29.07 62.3776 28.3683C62.844 27.6667 63.0919 26.8425 63.09 25.9999C63.0981 25.4379 62.9931 24.8799 62.7812 24.3593C62.5692 23.8386 62.2546 23.366 61.8562 22.9694C61.4578 22.5729 60.9837 22.2606 60.4621 22.051C59.9404 21.8415 59.382 21.7391 58.82 21.7499V21.7499ZM58.82 28.5799C58.3036 28.616 57.7882 28.496 57.3409 28.2353C56.8937 27.9747 56.5352 27.5855 56.312 27.1184C56.0888 26.6512 56.0114 26.1278 56.0897 25.6161C56.1679 25.1043 56.3984 24.628 56.7509 24.249C57.1035 23.8699 57.562 23.6057 58.0667 23.4907C58.5715 23.3757 59.0992 23.4152 59.5812 23.604C60.0632 23.7929 60.4772 24.1223 60.7695 24.5496C61.0618 24.9769 61.2187 25.4822 61.22 25.9999C61.2361 26.3279 61.1863 26.6559 61.0737 26.9643C60.9611 27.2728 60.7878 27.5556 60.5641 27.7961C60.3404 28.0366 60.0709 28.2298 59.7713 28.3644C59.4718 28.499 59.1483 28.5723 58.82 28.5799ZM47.74 23.0599V24.8599H52.06C51.9922 25.7077 51.6398 26.5077 51.06 27.1299C50.6266 27.5714 50.1054 27.9171 49.5301 28.1444C48.9547 28.3718 48.3381 28.4759 47.72 28.4499C46.4469 28.4499 45.226 27.9442 44.3259 27.044C43.4257 26.1439 42.92 24.923 42.92 23.6499C42.92 22.3769 43.4257 21.156 44.3259 20.2558C45.226 19.3556 46.4469 18.8499 47.72 18.8499C48.9404 18.8318 50.1189 19.2952 51 20.1399L52.27 18.8699C51.674 18.2804 50.9663 17.8158 50.1884 17.5033C49.4106 17.1908 48.5782 17.0366 47.74 17.0499C46.851 17.0153 45.9641 17.1605 45.1326 17.4769C44.3011 17.7932 43.5419 18.2742 42.9007 18.8909C42.2595 19.5077 41.7494 20.2475 41.401 21.0661C41.0525 21.8847 40.8729 22.7652 40.8729 23.6549C40.8729 24.5446 41.0525 25.4251 41.401 26.2437C41.7494 27.0623 42.2595 27.8022 42.9007 28.4189C43.5419 29.0357 44.3011 29.5166 45.1326 29.833C45.9641 30.1493 46.851 30.2945 47.74 30.2599C48.5954 30.2941 49.4484 30.1469 50.2429 29.8281C51.0374 29.5092 51.7555 29.0259 52.35 28.4099C53.4001 27.2563 53.9596 25.7391 53.91 24.1799C53.9136 23.8046 53.8834 23.4298 53.82 23.0599H47.74ZM93.05 24.4599C92.7892 23.6927 92.3015 23.0227 91.6515 22.5388C91.0015 22.0548 90.2198 21.7797 89.41 21.7499C88.863 21.7489 88.3216 21.86 87.8192 22.0765C87.3169 22.2929 86.8643 22.6101 86.4894 23.0085C86.1145 23.4068 85.8252 23.8778 85.6396 24.3923C85.4539 24.9068 85.3758 25.454 85.41 25.9999C85.4014 26.9128 85.6884 27.8039 86.2281 28.5402C86.7678 29.2765 87.5312 29.8184 88.4042 30.0851C89.2773 30.3517 90.2132 30.3288 91.0722 30.0196C91.9311 29.7105 92.667 29.1318 93.17 28.3699L91.72 27.3699C91.5038 27.7302 91.1972 28.0277 90.8306 28.2329C90.464 28.4382 90.0501 28.544 89.63 28.5399C89.1965 28.5578 88.7678 28.4442 88.4002 28.214C88.0325 27.9837 87.7431 27.6477 87.57 27.2499L93.26 24.8999L93.05 24.4599ZM87.25 25.8799C87.2297 25.5693 87.2716 25.2578 87.3733 24.9635C87.4749 24.6693 87.6342 24.3983 87.8419 24.1664C88.0496 23.9346 88.3014 23.7464 88.5827 23.6131C88.864 23.4798 89.169 23.4039 89.48 23.3899C89.8022 23.3703 90.123 23.4461 90.4023 23.608C90.6816 23.7699 90.9069 24.0106 91.05 24.2999L87.25 25.8799ZM82.63 29.9999H84.5V17.4999H82.63V29.9999ZM79.57 22.6999H79.5C79.2206 22.3818 78.8759 22.1277 78.4893 21.9551C78.1027 21.7825 77.6833 21.6955 77.26 21.6999C76.1672 21.7529 75.1366 22.2243 74.382 23.0165C73.6273 23.8087 73.2063 24.8608 73.2063 25.9549C73.2063 27.049 73.6273 28.1012 74.382 28.8933C75.1366 29.6855 76.1672 30.1569 77.26 30.2099C77.6839 30.2184 78.1046 30.1332 78.4918 29.9603C78.879 29.7875 79.2233 29.5312 79.5 29.2099H79.57V29.8199C79.57 31.4499 78.7 32.3199 77.3 32.3199C76.8323 32.3096 76.3782 32.1606 75.9954 31.8918C75.6126 31.6229 75.3183 31.2464 75.15 30.8099L73.53 31.4799C73.8295 32.2322 74.3502 32.8758 75.0234 33.3258C75.6965 33.7757 76.4904 34.0108 77.3 33.9999C79.49 33.9999 81.3 32.7099 81.3 29.5699V21.9999H79.57V22.6999ZM77.42 28.5799C76.7648 28.5391 76.1498 28.25 75.7003 27.7716C75.2508 27.2932 75.0005 26.6614 75.0005 26.0049C75.0005 25.3485 75.2508 24.7167 75.7003 24.2383C76.1498 23.7598 76.7648 23.4708 77.42 23.4299C77.7402 23.4437 78.0544 23.5218 78.3438 23.6596C78.6333 23.7973 78.8921 23.9918 79.1048 24.2316C79.3175 24.4714 79.4798 24.7515 79.5821 25.0553C79.6843 25.3591 79.7244 25.6803 79.7 25.9999C79.7273 26.3206 79.6892 26.6435 79.5881 26.9491C79.4871 27.2546 79.3251 27.5365 79.1119 27.7777C78.8988 28.0189 78.639 28.2143 78.3482 28.3522C78.0573 28.4901 77.7416 28.5676 77.42 28.5799V28.5799ZM101.81 17.4999H97.33V29.9999H99.2V25.2599H101.81C102.343 25.2982 102.878 25.2263 103.382 25.0487C103.886 24.871 104.348 24.5915 104.739 24.2274C105.13 23.8634 105.442 23.4227 105.655 22.9328C105.869 22.4428 105.979 21.9142 105.979 21.3799C105.979 20.8456 105.869 20.317 105.655 19.8271C105.442 19.3372 105.13 18.8965 104.739 18.5324C104.348 18.1684 103.886 17.8888 103.382 17.7112C102.878 17.5336 102.343 17.4616 101.81 17.4999V17.4999ZM101.81 23.4999H99.2V19.2399H101.85C102.131 19.2399 102.409 19.2953 102.669 19.4028C102.929 19.5104 103.164 19.668 103.363 19.8667C103.562 20.0654 103.72 20.3013 103.827 20.561C103.935 20.8206 103.99 21.0989 103.99 21.3799C103.99 21.661 103.935 21.9392 103.827 22.1989C103.72 22.4585 103.562 22.6944 103.363 22.8931C103.164 23.0918 102.929 23.2495 102.669 23.357C102.409 23.4646 102.131 23.5199 101.85 23.5199L101.81 23.4999ZM113.35 21.7099C112.669 21.6679 111.991 21.8265 111.399 22.1659C110.807 22.5054 110.328 23.0109 110.02 23.6199L111.67 24.3099C111.837 24.0093 112.087 23.7634 112.39 23.602C112.694 23.4405 113.038 23.3703 113.38 23.3999C113.617 23.3722 113.858 23.392 114.088 23.4582C114.317 23.5245 114.531 23.6358 114.718 23.7856C114.904 23.9355 115.058 24.1209 115.172 24.3311C115.286 24.5413 115.356 24.7721 115.38 25.0099V25.1299C114.779 24.8138 114.109 24.6491 113.43 24.6499C111.65 24.6499 109.83 25.6499 109.83 27.4699C109.848 27.8568 109.943 28.2361 110.11 28.5855C110.277 28.9348 110.513 29.247 110.803 29.5035C111.093 29.7601 111.431 29.9557 111.799 30.0787C112.166 30.2018 112.554 30.2498 112.94 30.2199C113.409 30.2459 113.877 30.1466 114.295 29.9322C114.713 29.7178 115.067 29.3961 115.32 28.9999H115.38V29.9999H117.18V25.1899C117.18 22.9999 115.52 21.7299 113.39 21.7299L113.35 21.7099ZM113.12 28.5599C112.51 28.5599 111.66 28.2499 111.66 27.4999C111.66 26.4999 112.72 26.1599 113.66 26.1599C114.254 26.1453 114.841 26.2903 115.36 26.5799C115.297 27.123 115.04 27.6249 114.635 27.9926C114.231 28.3604 113.707 28.569 113.16 28.5799L113.12 28.5599ZM123.74 21.9999L121.6 27.4199H121.54L119.32 21.9999H117.32L120.65 29.5799L118.75 33.7899H120.7L125.82 21.9999H123.74ZM106.94 29.9999H108.8V17.4999H106.94V29.9999Z" fill="white"/>
<path d="M10.44 7.53997C10.1105 7.92959 9.94233 8.43043 9.97 8.93997V31.06C9.93597 31.5704 10.1049 32.0735 10.44 32.46L10.51 32.54L22.9 20.15V19.85L10.51 7.46997L10.44 7.53997Z" fill="url(#paint0_linear)"/>
<path d="M27 24.28L22.9 20.15V19.85L27 15.72L27.09 15.78L32 18.56C33.4 19.35 33.4 20.65 32 21.45L27.11 24.23L27 24.28Z" fill="url(#paint1_linear)"/>
<path d="M27.1199 24.22L22.8999 20L10.4399 32.46C10.7225 32.7115 11.0842 32.8562 11.4623 32.869C11.8404 32.8818 12.211 32.7619 12.5099 32.53L27.1199 24.22" fill="url(#paint2_linear)"/>
<path d="M27.1199 15.78L12.5099 7.47997C12.213 7.24488 11.8426 7.12203 11.464 7.133C11.0854 7.14397 10.7228 7.28808 10.4399 7.53997L22.8999 20L27.1199 15.78Z" fill="url(#paint3_linear)"/>
<path opacity="0.2" d="M26.9999 24.1299L12.5099 32.3799C12.2219 32.5973 11.8708 32.7149 11.5099 32.7149C11.1491 32.7149 10.798 32.5973 10.5099 32.3799V32.3799L10.4399 32.4499L10.5099 32.5299C10.798 32.7473 11.1491 32.8649 11.5099 32.8649C11.8708 32.8649 12.2219 32.7473 12.5099 32.5299L27.1199 24.2199L26.9999 24.1299Z" fill="black"/>
<path opacity="0.12" d="M10.44 32.3199C10.1188 31.9233 9.96138 31.4188 10 30.9099V31.0599C9.96597 31.5703 10.1349 32.0735 10.47 32.4599L10.54 32.3899L10.44 32.3199Z" fill="black"/>
<path opacity="0.12" d="M32 21.3L27 24.13L27.09 24.22L32 21.44C32.2898 21.3174 32.5413 21.119 32.7278 20.8656C32.9143 20.6122 33.0291 20.3132 33.06 20C32.9975 20.2846 32.869 20.5505 32.6849 20.7763C32.5007 21.0021 32.2662 21.1815 32 21.3Z" fill="black"/>
<path opacity="0.25" d="M12.51 7.61998L32 18.7C32.2661 18.8185 32.5007 18.9979 32.6848 19.2237C32.869 19.4495 32.9975 19.7154 33.06 20C33.0291 19.6868 32.9143 19.3878 32.7278 19.1344C32.5412 18.881 32.2898 18.6825 32 18.56L12.51 7.47998C11.12 6.67998 9.96997 7.33998 9.96997 8.93998V9.08998C9.99997 7.48998 11.12 6.82998 12.51 7.61998Z" fill="white"/>
</g>
<defs>
<linearGradient id="paint0_linear" x1="21.8" y1="8.70997" x2="5.02" y2="25.49" gradientUnits="userSpaceOnUse">
<stop stop-color="#00A0FF"/>
<stop offset="0.01" stop-color="#00A1FF"/>
<stop offset="0.26" stop-color="#00BEFF"/>
<stop offset="0.51" stop-color="#00D2FF"/>
<stop offset="0.76" stop-color="#00DFFF"/>
<stop offset="1" stop-color="#00E3FF"/>
</linearGradient>
<linearGradient id="paint1_linear" x1="33.83" y1="20" x2="9.64003" y2="20" gradientUnits="userSpaceOnUse">
<stop stop-color="#FFE000"/>
<stop offset="0.41" stop-color="#FFBD00"/>
<stop offset="0.78" stop-color="#FFA500"/>
<stop offset="1" stop-color="#FF9C00"/>
</linearGradient>
<linearGradient id="paint2_linear" x1="24.8299" y1="22.3" x2="2.06994" y2="45.05" gradientUnits="userSpaceOnUse">
<stop stop-color="#FF3A44"/>
<stop offset="1" stop-color="#C31162"/>
</linearGradient>
<linearGradient id="paint3_linear" x1="7.29994" y1="0.17997" x2="17.4599" y2="10.34" gradientUnits="userSpaceOnUse">
<stop stop-color="#32A071"/>
<stop offset="0.07" stop-color="#2DA771"/>
<stop offset="0.48" stop-color="#15CF74"/>
<stop offset="0.8" stop-color="#06E775"/>
<stop offset="1" stop-color="#00F076"/>
</linearGradient>
<clipPath id="clip0">
<rect width="135" height="40" fill="white"/>
</clipPath>
</defs>
</svg>
