<svg width="16" height="16" viewBox="0 0 16 16" fill="none" xmlns="http://www.w3.org/2000/svg">
<path d="M10.0872 5.82646H11V4.07746C10.8425 4.05362 10.3009 4 9.67011 4C8.35397 4 7.45238 4.91071 7.45238 6.58454V8.125H6V10.0803H7.45238V15H9.23306V10.0807H10.6267L10.8479 8.12546H9.23265V6.77842C9.23306 6.21329 9.37139 5.82646 10.0872 5.82646Z" fill="white"/>
<path d="M11.5845 0H4.41533C1.98072 0 0 1.98081 0 4.41542V11.5846C0 14.0193 1.98072 16 4.41533 16H11.5845C14.0193 16 16 14.0192 16 11.5846V4.41542C16.0001 1.98081 14.0193 0 11.5845 0ZM14.5805 11.5846C14.5805 13.2365 13.2365 14.5804 11.5846 14.5804H4.41533C2.76348 14.5805 1.4196 13.2365 1.4196 11.5846V4.41542C1.4196 2.76358 2.76348 1.4196 4.41533 1.4196H11.5845C13.2364 1.4196 14.5804 2.76358 14.5804 4.41542V11.5846H14.5805Z" fill="white"/>
<path d="M11.5845 0H4.41533C1.98072 0 0 1.98081 0 4.41542V11.5846C0 14.0193 1.98072 16 4.41533 16H11.5845C14.0193 16 16 14.0192 16 11.5846V4.41542C16.0001 1.98081 14.0193 0 11.5845 0ZM14.5805 11.5846C14.5805 13.2365 13.2365 14.5804 11.5846 14.5804H4.41533C2.76348 14.5805 1.4196 13.2365 1.4196 11.5846V4.41542C1.4196 2.76358 2.76348 1.4196 4.41533 1.4196H11.5845C13.2364 1.4196 14.5804 2.76358 14.5804 4.41542V11.5846H14.5805Z" fill="white"/>
<path d="M11.5845 0H4.41533C1.98072 0 0 1.98081 0 4.41542V11.5846C0 14.0193 1.98072 16 4.41533 16H11.5845C14.0193 16 16 14.0192 16 11.5846V4.41542C16.0001 1.98081 14.0193 0 11.5845 0ZM14.5805 11.5846C14.5805 13.2365 13.2365 14.5804 11.5846 14.5804H4.41533C2.76348 14.5805 1.4196 13.2365 1.4196 11.5846V4.41542C1.4196 2.76358 2.76348 1.4196 4.41533 1.4196H11.5845C13.2364 1.4196 14.5804 2.76358 14.5804 4.41542V11.5846H14.5805Z" fill="white"/>
</svg>
