<svg width="16" height="16" viewBox="0 0 16 16" fill="none" xmlns="http://www.w3.org/2000/svg">
<path d="M11.5845 0H4.41533C1.98072 0 0 1.98081 0 4.41542V11.5846C0 14.0193 1.98072 16 4.41533 16H11.5845C14.0193 16 16 14.0192 16 11.5846V4.41542C16.0001 1.98081 14.0193 0 11.5845 0ZM14.5805 11.5846C14.5805 13.2365 13.2365 14.5804 11.5846 14.5804H4.41533C2.76348 14.5805 1.4196 13.2365 1.4196 11.5846V4.41542C1.4196 2.76358 2.76348 1.4196 4.41533 1.4196H11.5845C13.2364 1.4196 14.5804 2.76358 14.5804 4.41542V11.5846H14.5805Z" fill="white"/>
<path d="M11.5845 0H4.41533C1.98072 0 0 1.98081 0 4.41542V11.5846C0 14.0193 1.98072 16 4.41533 16H11.5845C14.0193 16 16 14.0192 16 11.5846V4.41542C16.0001 1.98081 14.0193 0 11.5845 0ZM14.5805 11.5846C14.5805 13.2365 13.2365 14.5804 11.5846 14.5804H4.41533C2.76348 14.5805 1.4196 13.2365 1.4196 11.5846V4.41542C1.4196 2.76358 2.76348 1.4196 4.41533 1.4196H11.5845C13.2364 1.4196 14.5804 2.76358 14.5804 4.41542V11.5846H14.5805Z" fill="white"/>
<path d="M11.5845 0H4.41533C1.98072 0 0 1.98081 0 4.41542V11.5846C0 14.0193 1.98072 16 4.41533 16H11.5845C14.0193 16 16 14.0192 16 11.5846V4.41542C16.0001 1.98081 14.0193 0 11.5845 0ZM14.5805 11.5846C14.5805 13.2365 13.2365 14.5804 11.5846 14.5804H4.41533C2.76348 14.5805 1.4196 13.2365 1.4196 11.5846V4.41542C1.4196 2.76358 2.76348 1.4196 4.41533 1.4196H11.5845C13.2364 1.4196 14.5804 2.76358 14.5804 4.41542V11.5846H14.5805Z" fill="white"/>
<path fill-rule="evenodd" clip-rule="evenodd" d="M4 4.96067C4 4.43033 4.43033 4 4.96067 4C5.49067 4 5.921 4.43033 5.92133 4.96067C5.92133 5.491 5.491 5.93033 4.96067 5.93033C4.43033 5.93033 4 5.491 4 4.96067ZM11.998 12V11.9997H12V9.06569C12 7.63035 11.691 6.52469 10.013 6.52469C9.20633 6.52469 8.665 6.96735 8.444 7.38702H8.42067V6.65869H6.82967V11.9997H8.48633V9.35502C8.48633 8.65869 8.61833 7.98535 9.48067 7.98535C10.3303 7.98535 10.343 8.78002 10.343 9.39969V12H11.998ZM4.132 6.65906H5.79067V12.0001H4.132V6.65906Z" fill="white"/>
</svg>
