<svg width="16" height="16" viewBox="0 0 16 16" fill="none" xmlns="http://www.w3.org/2000/svg">
<path d="M11.5845 0H4.41533C1.98072 0 0 1.98081 0 4.41542V11.5846C0 14.0193 1.98072 16 4.41533 16H11.5845C14.0193 16 16 14.0192 16 11.5846V4.41542C16.0001 1.98081 14.0193 0 11.5845 0ZM14.5805 11.5846C14.5805 13.2365 13.2365 14.5804 11.5846 14.5804H4.41533C2.76348 14.5805 1.4196 13.2365 1.4196 11.5846V4.41542C1.4196 2.76358 2.76348 1.4196 4.41533 1.4196H11.5845C13.2364 1.4196 14.5804 2.76358 14.5804 4.41542V11.5846H14.5805Z" fill="white"/>
<path d="M11.5845 0H4.41533C1.98072 0 0 1.98081 0 4.41542V11.5846C0 14.0193 1.98072 16 4.41533 16H11.5845C14.0193 16 16 14.0192 16 11.5846V4.41542C16.0001 1.98081 14.0193 0 11.5845 0ZM14.5805 11.5846C14.5805 13.2365 13.2365 14.5804 11.5846 14.5804H4.41533C2.76348 14.5805 1.4196 13.2365 1.4196 11.5846V4.41542C1.4196 2.76358 2.76348 1.4196 4.41533 1.4196H11.5845C13.2364 1.4196 14.5804 2.76358 14.5804 4.41542V11.5846H14.5805Z" fill="white"/>
<path d="M11.5845 0H4.41533C1.98072 0 0 1.98081 0 4.41542V11.5846C0 14.0193 1.98072 16 4.41533 16H11.5845C14.0193 16 16 14.0192 16 11.5846V4.41542C16.0001 1.98081 14.0193 0 11.5845 0ZM14.5805 11.5846C14.5805 13.2365 13.2365 14.5804 11.5846 14.5804H4.41533C2.76348 14.5805 1.4196 13.2365 1.4196 11.5846V4.41542C1.4196 2.76358 2.76348 1.4196 4.41533 1.4196H11.5845C13.2364 1.4196 14.5804 2.76358 14.5804 4.41542V11.5846H14.5805Z" fill="white"/>
<path d="M12.6154 5.82869C12.295 5.96923 11.9536 6.06238 11.5977 6.10762C11.9638 5.889 12.2433 5.54546 12.3747 5.13138C12.0333 5.33492 11.6564 5.47869 11.2547 5.55892C10.9305 5.21377 10.4685 5 9.96454 5C8.98669 5 8.19946 5.79369 8.19946 6.76669C8.19946 6.90669 8.21131 7.04131 8.24039 7.16946C6.772 7.09785 5.47269 6.39408 4.59985 5.322C4.44746 5.58638 4.35808 5.889 4.35808 6.21477C4.35808 6.82646 4.67308 7.36869 5.14262 7.68262C4.85885 7.67723 4.58046 7.59485 4.34462 7.46508C4.34462 7.47046 4.34462 7.47746 4.34462 7.48446C4.34462 8.34277 4.95685 9.05569 5.75969 9.21992C5.61592 9.25923 5.45923 9.27808 5.29662 9.27808C5.18354 9.27808 5.06938 9.27162 4.96223 9.24792C5.19108 9.94738 5.84046 10.4616 6.61262 10.4783C6.01169 10.9484 5.24869 11.2316 4.42269 11.2316C4.27785 11.2316 4.13892 11.2252 4 11.2074C4.78238 11.7119 5.70962 12 6.70954 12C9.95969 12 11.7366 9.30769 11.7366 6.974C11.7366 6.89592 11.7339 6.82054 11.7302 6.74569C12.0807 6.49692 12.3752 6.18623 12.6154 5.82869Z" fill="white"/>
</svg>
