<svg width="34" height="25" viewBox="0 0 34 25" fill="none" xmlns="http://www.w3.org/2000/svg">
<path fill-rule="evenodd" clip-rule="evenodd" d="M24.4501 2H4C3.86573 2 3.73456 2.01323 3.6077 2.03846L14.6291 9.75345L24.4501 2ZM2.08686 3.41518C2.03038 3.60016 2 3.79653 2 4V16.7765C2 17.8811 2.89543 18.7765 4 18.7765H25.3316C26.4362 18.7765 27.3316 17.8811 27.3316 16.7765V4C27.3316 3.49022 27.1409 3.02499 26.8269 2.67177L15.2846 11.7841L14.7008 12.245L14.0915 11.8184L2.08686 3.41518ZM0 4C0 1.79086 1.79086 0 4 0H25.3316C27.5407 0 29.3316 1.79086 29.3316 4V16.7765C29.3316 18.9857 27.5407 20.7765 25.3316 20.7765H4C1.79086 20.7765 0 18.9857 0 16.7765V4Z" fill="#FF3269"/>
<path d="M32.9081 16.1044C32.9081 20.4918 29.5933 21.0058 25.206 21.0058C20.8187 21.0058 18.9043 21.192 18.9043 16.8046C18.9043 12.4173 20.6656 9.10254 25.0529 9.10254C29.4402 9.10254 32.9081 11.7171 32.9081 16.1044Z" fill="#27033D"/>
<path d="M28.7372 20.4802C28.5295 20.4802 28.3283 20.4607 28.1336 20.4218C27.9389 20.3764 27.754 20.3082 27.5788 20.2174C27.41 20.12 27.2543 19.9967 27.1115 19.8474C26.9752 19.6917 26.8649 19.5035 26.7805 19.2828C26.3911 19.7111 25.9855 20.0162 25.5636 20.1979C25.1418 20.3796 24.6875 20.4705 24.2007 20.4705C23.7789 20.4705 23.409 20.3991 23.091 20.2563C22.773 20.107 22.5069 19.9026 22.2927 19.643C22.0785 19.3834 21.9163 19.0751 21.806 18.7182C21.7021 18.3612 21.6502 17.9718 21.6502 17.55C21.6502 17.1801 21.6956 16.8037 21.7865 16.4207C21.8838 16.0378 22.0266 15.6712 22.2148 15.3207C22.403 14.9638 22.6399 14.6295 22.9255 14.318C23.2175 14 23.5582 13.7274 23.9476 13.5003C24.337 13.2666 24.7783 13.0817 25.2716 12.9454C25.7713 12.8091 26.323 12.7409 26.9265 12.7409C27.2121 12.7409 27.4717 12.7539 27.7053 12.7799C27.9389 12.7994 28.1564 12.8286 28.3576 12.8675C28.5587 12.9064 28.7469 12.9584 28.9222 13.0233C29.1039 13.0817 29.2889 13.1498 29.4771 13.2277L28.523 16.9172C28.4257 17.3001 28.377 17.6052 28.377 17.8323C28.377 18.1568 28.4484 18.3807 28.5912 18.504C28.7405 18.6273 28.9384 18.689 29.185 18.689C29.4187 18.689 29.6361 18.6079 29.8373 18.4456C30.0449 18.2769 30.2234 18.0465 30.3727 17.7544C30.5219 17.4624 30.6388 17.1184 30.7231 16.7225C30.814 16.3266 30.8594 15.8951 30.8594 15.4278C30.8594 14.623 30.7394 13.9156 30.4992 13.3056C30.2591 12.689 29.9151 12.1731 29.4673 11.7577C29.026 11.3424 28.4906 11.0276 27.8611 10.8134C27.238 10.5993 26.5436 10.4922 25.7778 10.4922C24.9406 10.4922 24.1715 10.6479 23.4706 10.9595C22.7697 11.271 22.1661 11.6993 21.6599 12.2445C21.1537 12.7831 20.7578 13.4159 20.4723 14.1428C20.1932 14.8632 20.0537 15.6355 20.0537 16.4597C20.0537 17.4981 20.2094 18.4099 20.5209 19.1952C20.839 19.9805 21.2738 20.636 21.8254 21.1616C22.3836 21.6873 23.0423 22.08 23.8016 22.3396C24.5674 22.6057 25.3949 22.7387 26.284 22.7387C26.7967 22.7387 27.2672 22.7095 27.6956 22.6511C28.1304 22.5992 28.523 22.5278 28.8735 22.4369C29.224 22.3526 29.5355 22.2552 29.8081 22.1449C30.0806 22.0345 30.3143 21.9242 30.509 21.8139C30.6517 21.736 30.7848 21.6971 30.9081 21.6971C31.1352 21.6971 31.2942 21.8171 31.3851 22.0573L31.794 23.1086C31.4695 23.3228 31.1093 23.5207 30.7134 23.7025C30.324 23.8842 29.8989 24.0432 29.4381 24.1795C28.9838 24.3158 28.4938 24.4196 27.9682 24.491C27.4425 24.5689 26.8811 24.6078 26.284 24.6078C25.0639 24.6078 23.9411 24.4164 22.9157 24.0334C21.8903 23.657 21.0012 23.1151 20.2484 22.4077C19.502 21.7003 18.9179 20.8436 18.4961 19.8377C18.0807 18.8318 17.873 17.7058 17.873 16.4597C17.873 15.7782 17.9639 15.1098 18.1456 14.4543C18.3273 13.7988 18.5869 13.1823 18.9244 12.6047C19.2619 12.0271 19.6675 11.4949 20.1413 11.0081C20.615 10.5214 21.144 10.1028 21.7281 9.75233C22.3122 9.39538 22.9449 9.11956 23.6264 8.92486C24.3078 8.73016 25.025 8.63281 25.7778 8.63281C26.4073 8.63281 27.0206 8.7042 27.6177 8.84698C28.2213 8.98976 28.7891 9.19744 29.3213 9.47001C29.86 9.74259 30.3532 10.0768 30.801 10.4727C31.2553 10.8686 31.6447 11.3196 31.9692 11.8259C32.2937 12.3256 32.5468 12.8805 32.7285 13.4905C32.9102 14.0941 33.0011 14.7398 33.0011 15.4278C33.0011 16.1222 32.894 16.7777 32.6799 17.3942C32.4722 18.0043 32.1769 18.5397 31.794 19.0005C31.4176 19.4548 30.9665 19.815 30.4408 20.0811C29.9216 20.3472 29.3538 20.4802 28.7372 20.4802ZM24.8043 18.6111C24.9471 18.6111 25.0866 18.5884 25.2229 18.543C25.3657 18.4975 25.4987 18.4229 25.622 18.3191C25.7453 18.2087 25.8557 18.0659 25.953 17.8907C26.0569 17.7155 26.1412 17.4981 26.2061 17.2385L26.8876 14.5808C26.7318 14.5614 26.5761 14.5516 26.4203 14.5516C26.0958 14.5516 25.7843 14.6295 25.4858 14.7853C25.1872 14.941 24.9244 15.152 24.6972 15.418C24.4766 15.6841 24.2981 15.9957 24.1618 16.3526C24.032 16.7031 23.9671 17.0762 23.9671 17.4721C23.9671 17.855 24.0385 18.1406 24.1813 18.3288C24.3305 18.517 24.5382 18.6111 24.8043 18.6111Z" fill="#FF3269"/>
</svg>
